<mxfile host="app.diagrams.net" agent="Mozilla/5.0 (X11; Linux x86_64; rv:135.0) Gecko/20100101 Firefox/135.0" version="26.1.0">
  <diagram name="Page-1" id="qaPnfE5fPncGg6E6iy6Y">
    <mxGraphModel dx="1080" dy="529" grid="1" gridSize="10" guides="1" tooltips="1" connect="1" arrows="1" fold="1" page="1" pageScale="1" pageWidth="850" pageHeight="1100" math="0" shadow="0">
      <root>
        <mxCell id="0" />
        <mxCell id="1" parent="0" />
        <mxCell id="bFuCK6NXdk8E9jZwNOna-13" style="edgeStyle=orthogonalEdgeStyle;rounded=0;orthogonalLoop=1;jettySize=auto;html=1;" edge="1" parent="1" source="bFuCK6NXdk8E9jZwNOna-1" target="bFuCK6NXdk8E9jZwNOna-3">
          <mxGeometry relative="1" as="geometry" />
        </mxCell>
        <mxCell id="bFuCK6NXdk8E9jZwNOna-1" value="&lt;div&gt;Load Config&lt;/div&gt;" style="rounded=0;whiteSpace=wrap;html=1;" vertex="1" parent="1">
          <mxGeometry x="360" y="50" width="120" height="60" as="geometry" />
        </mxCell>
        <mxCell id="bFuCK6NXdk8E9jZwNOna-11" value="" style="edgeStyle=orthogonalEdgeStyle;rounded=0;orthogonalLoop=1;jettySize=auto;html=1;" edge="1" parent="1" source="bFuCK6NXdk8E9jZwNOna-3" target="bFuCK6NXdk8E9jZwNOna-10">
          <mxGeometry relative="1" as="geometry" />
        </mxCell>
        <mxCell id="bFuCK6NXdk8E9jZwNOna-12" value="NO" style="edgeLabel;html=1;align=center;verticalAlign=middle;resizable=0;points=[];" vertex="1" connectable="0" parent="bFuCK6NXdk8E9jZwNOna-11">
          <mxGeometry x="-0.1714" y="2" relative="1" as="geometry">
            <mxPoint as="offset" />
          </mxGeometry>
        </mxCell>
        <mxCell id="bFuCK6NXdk8E9jZwNOna-15" style="edgeStyle=orthogonalEdgeStyle;rounded=0;orthogonalLoop=1;jettySize=auto;html=1;exitX=0.5;exitY=1;exitDx=0;exitDy=0;entryX=0.5;entryY=0;entryDx=0;entryDy=0;" edge="1" parent="1" source="bFuCK6NXdk8E9jZwNOna-3" target="bFuCK6NXdk8E9jZwNOna-6">
          <mxGeometry relative="1" as="geometry" />
        </mxCell>
        <mxCell id="bFuCK6NXdk8E9jZwNOna-16" value="YES" style="edgeLabel;html=1;align=center;verticalAlign=middle;resizable=0;points=[];" vertex="1" connectable="0" parent="bFuCK6NXdk8E9jZwNOna-15">
          <mxGeometry x="-0.1" y="1" relative="1" as="geometry">
            <mxPoint as="offset" />
          </mxGeometry>
        </mxCell>
        <mxCell id="bFuCK6NXdk8E9jZwNOna-3" value="&lt;div&gt;Does config file&lt;/div&gt;&lt;div&gt;exist?&lt;/div&gt;" style="rhombus;whiteSpace=wrap;html=1;" vertex="1" parent="1">
          <mxGeometry x="370" y="210" width="100" height="100" as="geometry" />
        </mxCell>
        <mxCell id="bFuCK6NXdk8E9jZwNOna-18" style="edgeStyle=orthogonalEdgeStyle;rounded=0;orthogonalLoop=1;jettySize=auto;html=1;" edge="1" parent="1" source="bFuCK6NXdk8E9jZwNOna-6" target="bFuCK6NXdk8E9jZwNOna-17">
          <mxGeometry relative="1" as="geometry" />
        </mxCell>
        <mxCell id="bFuCK6NXdk8E9jZwNOna-6" value="Read config from file" style="whiteSpace=wrap;html=1;" vertex="1" parent="1">
          <mxGeometry x="360" y="370" width="120" height="60" as="geometry" />
        </mxCell>
        <mxCell id="bFuCK6NXdk8E9jZwNOna-14" style="edgeStyle=elbowEdgeStyle;rounded=0;orthogonalLoop=1;jettySize=auto;html=1;entryX=0;entryY=0.5;entryDx=0;entryDy=0;" edge="1" parent="1" source="bFuCK6NXdk8E9jZwNOna-10" target="bFuCK6NXdk8E9jZwNOna-1">
          <mxGeometry relative="1" as="geometry">
            <mxPoint x="240" y="80" as="targetPoint" />
            <Array as="points">
              <mxPoint x="240" y="160" />
            </Array>
          </mxGeometry>
        </mxCell>
        <mxCell id="bFuCK6NXdk8E9jZwNOna-10" value="&lt;div&gt;Generate configuration file&lt;/div&gt;" style="whiteSpace=wrap;html=1;" vertex="1" parent="1">
          <mxGeometry x="180" y="230" width="120" height="60" as="geometry" />
        </mxCell>
        <mxCell id="bFuCK6NXdk8E9jZwNOna-25" style="edgeStyle=orthogonalEdgeStyle;rounded=0;orthogonalLoop=1;jettySize=auto;html=1;entryX=0.5;entryY=0;entryDx=0;entryDy=0;" edge="1" parent="1" source="bFuCK6NXdk8E9jZwNOna-17" target="bFuCK6NXdk8E9jZwNOna-22">
          <mxGeometry relative="1" as="geometry" />
        </mxCell>
        <mxCell id="bFuCK6NXdk8E9jZwNOna-26" value="YES" style="edgeLabel;html=1;align=center;verticalAlign=middle;resizable=0;points=[];" vertex="1" connectable="0" parent="bFuCK6NXdk8E9jZwNOna-25">
          <mxGeometry x="-0.2429" y="4" relative="1" as="geometry">
            <mxPoint as="offset" />
          </mxGeometry>
        </mxCell>
        <mxCell id="bFuCK6NXdk8E9jZwNOna-30" value="" style="edgeStyle=orthogonalEdgeStyle;rounded=0;orthogonalLoop=1;jettySize=auto;html=1;" edge="1" parent="1" source="bFuCK6NXdk8E9jZwNOna-17" target="bFuCK6NXdk8E9jZwNOna-29">
          <mxGeometry relative="1" as="geometry" />
        </mxCell>
        <mxCell id="bFuCK6NXdk8E9jZwNOna-31" value="NO" style="edgeLabel;html=1;align=center;verticalAlign=middle;resizable=0;points=[];" vertex="1" connectable="0" parent="bFuCK6NXdk8E9jZwNOna-30">
          <mxGeometry x="-0.325" relative="1" as="geometry">
            <mxPoint as="offset" />
          </mxGeometry>
        </mxCell>
        <mxCell id="bFuCK6NXdk8E9jZwNOna-17" value="Is config valid?" style="rhombus;whiteSpace=wrap;html=1;" vertex="1" parent="1">
          <mxGeometry x="380" y="470" width="80" height="80" as="geometry" />
        </mxCell>
        <mxCell id="bFuCK6NXdk8E9jZwNOna-65" value="" style="edgeStyle=orthogonalEdgeStyle;rounded=0;orthogonalLoop=1;jettySize=auto;html=1;" edge="1" parent="1" source="bFuCK6NXdk8E9jZwNOna-22" target="bFuCK6NXdk8E9jZwNOna-64">
          <mxGeometry relative="1" as="geometry" />
        </mxCell>
        <mxCell id="bFuCK6NXdk8E9jZwNOna-22" value="&lt;div&gt;Create config object with config values&lt;/div&gt;" style="whiteSpace=wrap;html=1;" vertex="1" parent="1">
          <mxGeometry x="360" y="690" width="120" height="60" as="geometry" />
        </mxCell>
        <mxCell id="bFuCK6NXdk8E9jZwNOna-35" value="" style="edgeStyle=orthogonalEdgeStyle;rounded=0;orthogonalLoop=1;jettySize=auto;html=1;" edge="1" parent="1" source="bFuCK6NXdk8E9jZwNOna-29" target="bFuCK6NXdk8E9jZwNOna-34">
          <mxGeometry relative="1" as="geometry" />
        </mxCell>
        <mxCell id="bFuCK6NXdk8E9jZwNOna-40" value="&lt;div&gt;NO&lt;/div&gt;" style="edgeLabel;html=1;align=center;verticalAlign=middle;resizable=0;points=[];" vertex="1" connectable="0" parent="bFuCK6NXdk8E9jZwNOna-35">
          <mxGeometry x="-0.44" y="-1" relative="1" as="geometry">
            <mxPoint as="offset" />
          </mxGeometry>
        </mxCell>
        <mxCell id="bFuCK6NXdk8E9jZwNOna-48" value="" style="edgeStyle=orthogonalEdgeStyle;rounded=0;orthogonalLoop=1;jettySize=auto;html=1;" edge="1" parent="1" source="bFuCK6NXdk8E9jZwNOna-29" target="bFuCK6NXdk8E9jZwNOna-47">
          <mxGeometry relative="1" as="geometry" />
        </mxCell>
        <mxCell id="bFuCK6NXdk8E9jZwNOna-49" value="YES" style="edgeLabel;html=1;align=center;verticalAlign=middle;resizable=0;points=[];" vertex="1" connectable="0" parent="bFuCK6NXdk8E9jZwNOna-48">
          <mxGeometry x="-0.6462" relative="1" as="geometry">
            <mxPoint as="offset" />
          </mxGeometry>
        </mxCell>
        <mxCell id="bFuCK6NXdk8E9jZwNOna-29" value="Is config outdated?" style="rhombus;whiteSpace=wrap;html=1;" vertex="1" parent="1">
          <mxGeometry x="200" y="470" width="80" height="80" as="geometry" />
        </mxCell>
        <mxCell id="bFuCK6NXdk8E9jZwNOna-36" style="edgeStyle=orthogonalEdgeStyle;rounded=0;orthogonalLoop=1;jettySize=auto;html=1;" edge="1" parent="1" source="bFuCK6NXdk8E9jZwNOna-34" target="bFuCK6NXdk8E9jZwNOna-10">
          <mxGeometry relative="1" as="geometry" />
        </mxCell>
        <mxCell id="bFuCK6NXdk8E9jZwNOna-37" value="&lt;div&gt;YES&lt;/div&gt;" style="edgeLabel;html=1;align=center;verticalAlign=middle;resizable=0;points=[];" vertex="1" connectable="0" parent="bFuCK6NXdk8E9jZwNOna-36">
          <mxGeometry x="0.12" y="4" relative="1" as="geometry">
            <mxPoint as="offset" />
          </mxGeometry>
        </mxCell>
        <mxCell id="bFuCK6NXdk8E9jZwNOna-39" value="" style="edgeStyle=orthogonalEdgeStyle;rounded=0;orthogonalLoop=1;jettySize=auto;html=1;" edge="1" parent="1" source="bFuCK6NXdk8E9jZwNOna-34" target="bFuCK6NXdk8E9jZwNOna-38">
          <mxGeometry relative="1" as="geometry" />
        </mxCell>
        <mxCell id="bFuCK6NXdk8E9jZwNOna-42" value="NO" style="edgeLabel;html=1;align=center;verticalAlign=middle;resizable=0;points=[];" vertex="1" connectable="0" parent="bFuCK6NXdk8E9jZwNOna-39">
          <mxGeometry x="-0.475" y="2" relative="1" as="geometry">
            <mxPoint as="offset" />
          </mxGeometry>
        </mxCell>
        <mxCell id="bFuCK6NXdk8E9jZwNOna-34" value="Does user want to generate a new config?" style="rhombus;whiteSpace=wrap;html=1;" vertex="1" parent="1">
          <mxGeometry x="200" y="340" width="80" height="80" as="geometry" />
        </mxCell>
        <mxCell id="bFuCK6NXdk8E9jZwNOna-38" value="STOP SERVER" style="ellipse;whiteSpace=wrap;html=1;" vertex="1" parent="1">
          <mxGeometry x="40" y="340" width="80" height="80" as="geometry" />
        </mxCell>
        <mxCell id="bFuCK6NXdk8E9jZwNOna-50" style="edgeStyle=orthogonalEdgeStyle;rounded=0;orthogonalLoop=1;jettySize=auto;html=1;entryX=0.5;entryY=1;entryDx=0;entryDy=0;" edge="1" parent="1" source="bFuCK6NXdk8E9jZwNOna-47" target="bFuCK6NXdk8E9jZwNOna-38">
          <mxGeometry relative="1" as="geometry" />
        </mxCell>
        <mxCell id="bFuCK6NXdk8E9jZwNOna-51" value="NO" style="edgeLabel;html=1;align=center;verticalAlign=middle;resizable=0;points=[];" vertex="1" connectable="0" parent="bFuCK6NXdk8E9jZwNOna-50">
          <mxGeometry x="-0.8333" y="2" relative="1" as="geometry">
            <mxPoint as="offset" />
          </mxGeometry>
        </mxCell>
        <mxCell id="bFuCK6NXdk8E9jZwNOna-56" value="" style="edgeStyle=orthogonalEdgeStyle;rounded=0;orthogonalLoop=1;jettySize=auto;html=1;" edge="1" parent="1" source="bFuCK6NXdk8E9jZwNOna-47" target="bFuCK6NXdk8E9jZwNOna-55">
          <mxGeometry relative="1" as="geometry">
            <Array as="points">
              <mxPoint x="240" y="770" />
              <mxPoint x="240" y="770" />
            </Array>
          </mxGeometry>
        </mxCell>
        <mxCell id="bFuCK6NXdk8E9jZwNOna-59" value="YES" style="edgeLabel;html=1;align=center;verticalAlign=middle;resizable=0;points=[];" vertex="1" connectable="0" parent="bFuCK6NXdk8E9jZwNOna-56">
          <mxGeometry x="-0.7333" y="4" relative="1" as="geometry">
            <mxPoint as="offset" />
          </mxGeometry>
        </mxCell>
        <mxCell id="bFuCK6NXdk8E9jZwNOna-47" value="Is config upgradable without user input?" style="rhombus;whiteSpace=wrap;html=1;" vertex="1" parent="1">
          <mxGeometry x="200" y="680" width="80" height="80" as="geometry" />
        </mxCell>
        <mxCell id="bFuCK6NXdk8E9jZwNOna-55" value="&lt;div&gt;Upgrade Config&lt;/div&gt;" style="whiteSpace=wrap;html=1;" vertex="1" parent="1">
          <mxGeometry x="180" y="850" width="120" height="60" as="geometry" />
        </mxCell>
        <mxCell id="bFuCK6NXdk8E9jZwNOna-60" style="edgeStyle=orthogonalEdgeStyle;rounded=0;orthogonalLoop=1;jettySize=auto;html=1;entryX=0.5;entryY=1;entryDx=0;entryDy=0;" edge="1" parent="1" source="bFuCK6NXdk8E9jZwNOna-55" target="bFuCK6NXdk8E9jZwNOna-22">
          <mxGeometry relative="1" as="geometry" />
        </mxCell>
        <mxCell id="bFuCK6NXdk8E9jZwNOna-64" value="Return config object" style="ellipse;whiteSpace=wrap;html=1;" vertex="1" parent="1">
          <mxGeometry x="580" y="680" width="80" height="80" as="geometry" />
        </mxCell>
      </root>
    </mxGraphModel>
  </diagram>
</mxfile>
